<svg xmlns="http://www.w3.org/2000/svg" viewBox="0 0 88 88"><title>Artboard-20</title><g id="Email_Money" data-name="Email Money"><polygon points="56.367 65.234 79 84.539 79 48.504 56.367 65.234" style="fill:#202021"/><polygon points="9 48.504 9 84.539 31.633 65.234 9 48.504" style="fill:#202021"/><path d="M43.35,55.24a1,1,0,0,1,1.3,0L54.8,63.9,77.97,46.78l-22.3-15.1a17.9226,17.9226,0,0,1-23.34,0l-22.3,15.1L33.2,63.9ZM49,38a1,1,0,0,1,2,0v8a1,1,0,0,1-2,0Zm-6,1a1,1,0,0,1,2,0V52a1,1,0,0,1-2,0Zm-6-1a1,1,0,0,1,2,0v8a1,1,0,0,1-2,0Z" style="fill:#202021"/><polygon points="10.369 86 77.631 86 44 57.314 10.369 86" style="fill:#202021"/><path d="M43,14a1.0009,1.0009,0,0,0-1,1v.5586a.9982.9982,0,0,0,.6836.9487L43,16.6127Z" style="fill:#202021"/><path d="M46,21v-.5586a.9982.9982,0,0,0-.6836-.9487L45,19.3873V22A1.0009,1.0009,0,0,0,46,21Z" style="fill:#202021"/><path d="M44,28A10,10,0,1,0,34,18,10.0165,10.0165,0,0,0,44,28Zm-1.95-9.6A2.9782,2.9782,0,0,1,40,15.56V15a3.0088,3.0088,0,0,1,3-3V11a1,1,0,0,1,2,0v1a3.0088,3.0088,0,0,1,3,3,1,1,0,0,1-2,0,1.0029,1.0029,0,0,0-1-1v3.28l.95.32A2.9782,2.9782,0,0,1,48,20.44V21a3.0088,3.0088,0,0,1-3,3v1a1,1,0,0,1-2,0V24a3.0088,3.0088,0,0,1-3-3,1,1,0,0,1,2,0,1.0029,1.0029,0,0,0,1,1V18.72Z" style="fill:#202021"/><path d="M44,34A16,16,0,1,0,28,18,16.0212,16.0212,0,0,0,44,34ZM44,6A12,12,0,1,1,32,18,12.01,12.01,0,0,1,44,6Z" style="fill:#202021"/></g></svg>